<?xml version="1.0" encoding="utf-8"?>
<!-- Generator: Adobe Illustrator 24.3.0, SVG Export Plug-In . SVG Version: 6.00 Build 0)  -->
<svg version="1.1" id="Layer_1" xmlns="http://www.w3.org/2000/svg" xmlns:xlink="http://www.w3.org/1999/xlink" x="0px" y="0px"
	 viewBox="0 0 64 64" style="enable-background:new 0 0 64 64;" xml:space="preserve">
<style type="text/css">
	.st0{opacity:0.5;fill:#FEF9FB;}
	.st1{opacity:0.7;fill:#FFFFFF;}
</style>
<path class="st0" d="M35.6,32.2l9.4-9.7c0.8-0.9,1.2-2.2,0.3-3.3c-1-1.4-2.7-1.6-3.9-0.3l-9.4,9.7l-9.6-9.9c-1.2-1.2-2.9-1-3.9,0.3
	c-0.7,1-0.5,2.4,0.3,3.3l9.4,9.7L19,41.7c-0.8,0.9-1.2,2.2-0.3,3.3c1,1.4,2.7,1.6,3.9,0.3l9.6-9.9l9.4,9.7c0.8,0.9,2.2,1.2,3.2,0.3
	c1.3-1,1.5-2.8,0.3-4L35.6,32.2z"/>
<path class="st1" d="M57.3,17.8C51.6,8,41.8,3,32,3C23.4,3,14.8,6.8,9,14.4C1.1,24.6,1,39,8.7,49.3C14.5,57.1,23.3,61,32,61
	c9.9,0,19.9-5.1,25.6-15.2C62.4,37.1,62.3,26.4,57.3,17.8z M50.4,50.4c-10.2,10.2-26.7,10.2-36.8,0c-10.1-10.1-10.1-26.7,0-36.8
	C18.7,8.5,25.3,6,32,6s13.3,2.5,18.4,7.6C60.5,23.7,60.5,40.3,50.4,50.4z"/>
</svg>
